<svg id="visual" viewBox="0 0 900 600" width="900" height="600" xmlns="http://www.w3.org/2000/svg" xmlns:xlink="http://www.w3.org/1999/xlink" version="1.1"><path d="M0 430L25 433.2C50 436.3 100 442.7 150 453.2C200 463.7 250 478.3 300 484C350 489.7 400 486.3 450 483.2C500 480 550 477 600 470.3C650 463.7 700 453.3 750 445C800 436.7 850 430.3 875 427.2L900 424L900 601L875 601C850 601 800 601 750 601C700 601 650 601 600 601C550 601 500 601 450 601C400 601 350 601 300 601C250 601 200 601 150 601C100 601 50 601 25 601L0 601Z" fill="#6CADEF80"></path><path d="M0 495L25 496.7C50 498.3 100 501.7 150 497C200 492.3 250 479.7 300 475C350 470.3 400 473.7 450 475.3C500 477 550 477 600 480.5C650 484 700 491 750 499.7C800 508.3 850 518.7 875 523.8L900 529L900 601L875 601C850 601 800 601 750 601C700 601 650 601 600 601C550 601 500 601 450 601C400 601 350 601 300 601C250 601 200 601 150 601C100 601 50 601 25 601L0 601Z" fill="#91c2f380"></path><path d="M0 514L25 515.7C50 517.3 100 520.7 150 521.7C200 522.7 250 521.3 300 518.5C350 515.7 400 511.3 450 516.2C500 521 550 535 600 542C650 549 700 549 750 539.2C800 529.3 850 509.7 875 499.8L900 490L900 601L875 601C850 601 800 601 750 601C700 601 650 601 600 601C550 601 500 601 450 601C400 601 350 601 300 601C250 601 200 601 150 601C100 601 50 601 25 601L0 601Z" fill="#b6d6f780"></path><path d="M0 563L25 561.8C50 560.7 100 558.3 150 554.2C200 550 250 544 300 541.5C350 539 400 540 450 545.3C500 550.7 550 560.3 600 566C650 571.7 700 573.3 750 567.3C800 561.3 850 547.7 875 540.8L900 534L900 601L875 601C850 601 800 601 750 601C700 601 650 601 600 601C550 601 500 601 450 601C400 601 350 601 300 601C250 601 200 601 150 601C100 601 50 601 25 601L0 601Z" fill="#ffffff"></path></svg>